# xmcd CD database file
#
# Track frame offsets:
#	150
#	35927
#	68207
#	93297
#	126162
#	163345
#	190275
#	217210
#	242037
#	272972
#
# Disc length: 4106 seconds
#
# Revision: 1
# Processed by: cddbd v1.5.1PL2 Copyright (c) Steve Scherf et al.
# Submitted via: CDex 1.51
#
DISCID=a110080a
DTITLE=Herbie Hancock best - Herbie Hancock
DYEAR=2002
DGENRE=Jazz
TTITLE0=MAIDEN VOYAGE
TTITLE1=WATERMELON MAN
TTITLE2=THE SORCERER
TTITLE3=ONE FINGER SNAP 
TTITLE4=BLIND MAN, BLIND MAN
TTITLE5=JACK RABBIT
TTITLE6=THE EYE OF THE HURRICANE
TTITLE7=CANTALOUP ISLAND
TTITLE8=KING COBRA
TTITLE9=SPEAK LIKE A CHILD
EXTD=YEAR: 2002
EXTT0=
EXTT1=
EXTT2=
EXTT3=
EXTT4=
EXTT5=
EXTT6=
EXTT7=
EXTT8=
EXTT9=
PLAYORDER=
